<?xml version="1.0" encoding="utf-8"?>
<!-- Generator: Adobe Illustrator 21.0.0, SVG Export Plug-In . SVG Version: 6.00 Build 0)  -->
<svg version="1.1" id="Layer_1" xmlns="http://www.w3.org/2000/svg" xmlns:xlink="http://www.w3.org/1999/xlink" x="0px" y="0px"
	 viewBox="0 0 128 128" style="enable-background:new 0 0 128 128;" xml:space="preserve">
<style type="text/css">
	.st0{fill:#CFF1FB;}
	.st1{fill:#91DEF5;}
	.st2{fill:#F6F7F7;}
	.st3{fill:#FFCFB8;}
	.st4{fill:#FFA77B;}
	.st5{fill:#E9EAEB;}
	.st6{fill:#746887;}
	.st7{fill:#F98770;}
	.st8{fill:#9B9B9B;}
	.st9{fill:#FFDDCF;}
	.st10{fill:#FFFFFF;}
	.st11{fill:#B7B7B7;}
	.st12{fill:#FFBC99;}
	.st13{fill:#DBDCDE;}
	.st14{fill:#FECFBA;}
	.st15{fill:#D0F1FA;}
	.st16{fill:#FDA77F;}
	.st17{fill:#94DEF4;}
</style>
<g>
	<g>
		<path class="st2" d="M106.5,1.5h-85c-1.66,0-3,1.34-3,3v119c0,1.66,1.34,3,3,3h85c1.66,0,3-1.34,3-3V4.5
			C109.5,2.84,108.16,1.5,106.5,1.5z"/>
		<path class="st2" d="M123.5,15.5h-14v100h14c1.66,0,3-1.34,3-3v-94C126.5,16.84,125.16,15.5,123.5,15.5z"/>
		<path class="st2" d="M1.5,18.5v94c0,1.66,1.34,3,3,3h14v-100h-14C2.84,15.5,1.5,16.84,1.5,18.5z"/>
		<rect x="18.5" y="15.5" class="st0" width="91" height="36"/>
		<path class="st3" d="M77.472,60.5H49.528c-1.12,0-2.028,0.908-2.028,2.028v21.943c0,1.12,0.908,2.028,2.028,2.028h27.943
			c1.12,0,2.028-0.908,2.028-2.028V62.528C79.5,61.408,78.592,60.5,77.472,60.5z"/>
		<path class="st0" d="M18.5,123.5c0,1.657,1.343,3,3,3h85c1.657,0,3-1.343,3-3v-28h-91V123.5z"/>
		<path class="st4" d="M123.5,15.5h-14v15h17v-12C126.5,16.84,125.16,15.5,123.5,15.5z"/>
		<path class="st4" d="M1.5,18.5v12h17v-15h-14C2.84,15.5,1.5,16.84,1.5,18.5z"/>
		<path class="st4" d="M106.5,1.5h-85c-1.66,0-3,1.34-3,3v11h91v-11C109.5,2.84,108.16,1.5,106.5,1.5z"/>
	</g>
	<g>
		<path class="st6" d="M109.5,14h-91c-0.828,0-1.5,0.671-1.5,1.5v36c0,0.829,0.672,1.5,1.5,1.5h12.777c0.828,0,1.5-0.671,1.5-1.5
			s-0.672-1.5-1.5-1.5H20V17h88v33H38.968c-0.828,0-1.5,0.671-1.5,1.5s0.672,1.5,1.5,1.5H109.5c0.828,0,1.5-0.671,1.5-1.5v-36
			C111,14.671,110.328,14,109.5,14z"/>
		<path class="st7" d="M106.5,0h-85C19.019,0,17,2.019,17,4.5v11c0,0.829,0.672,1.5,1.5,1.5h91c0.828,0,1.5-0.671,1.5-1.5v-11
			C111,2.019,108.981,0,106.5,0z M108,14H20V4.5C20,3.673,20.673,3,21.5,3h85c0.827,0,1.5,0.673,1.5,1.5V14z"/>
		<path class="st6" d="M106.5,0h-85C19.019,0,17,2.019,17,4.5v119c0,2.481,2.019,4.5,4.5,4.5h85c2.481,0,4.5-2.019,4.5-4.5V4.5
			C111,2.019,108.981,0,106.5,0z M108,123.5c0,0.827-0.673,1.5-1.5,1.5h-85c-0.827,0-1.5-0.673-1.5-1.5V4.5
			C20,3.673,20.673,3,21.5,3h85c0.827,0,1.5,0.673,1.5,1.5V123.5z"/>
		<path class="st7" d="M77.472,59H49.528C47.583,59,46,60.583,46,62.528v21.943C46,86.417,47.583,88,49.528,88h27.943
			C79.417,88,81,86.417,81,84.472V62.528C81,60.583,79.417,59,77.472,59z M78,84.472C78,84.763,77.763,85,77.472,85H49.528
			C49.237,85,49,84.763,49,84.472V62.528C49,62.237,49.237,62,49.528,62h27.943C77.763,62,78,62.237,78,62.528V84.472z"/>
		<path class="st6" d="M31.5,7h-3C27.672,7,27,7.671,27,8.5s0.672,1.5,1.5,1.5h3c0.828,0,1.5-0.671,1.5-1.5S32.328,7,31.5,7z"/>
		<path class="st6" d="M40.5,7h-3C36.672,7,36,7.671,36,8.5s0.672,1.5,1.5,1.5h3c0.828,0,1.5-0.671,1.5-1.5S41.328,7,40.5,7z"/>
		<path class="st6" d="M90.5,29h-53c-0.828,0-1.5,0.671-1.5,1.5s0.672,1.5,1.5,1.5h53c0.828,0,1.5-0.671,1.5-1.5S91.328,29,90.5,29z
			"/>
		<path class="st6" d="M79.5,37h-32c-0.828,0-1.5,0.671-1.5,1.5s0.672,1.5,1.5,1.5h32c0.828,0,1.5-0.671,1.5-1.5S80.328,37,79.5,37z
			"/>
		<path class="st6" d="M90.5,106h-53c-0.828,0-1.5,0.671-1.5,1.5s0.672,1.5,1.5,1.5h53c0.828,0,1.5-0.671,1.5-1.5
			S91.328,106,90.5,106z"/>
		<path class="st6" d="M79.5,114h-32c-0.828,0-1.5,0.671-1.5,1.5s0.672,1.5,1.5,1.5h32c0.828,0,1.5-0.671,1.5-1.5
			S80.328,114,79.5,114z"/>
		<path class="st6" d="M109.5,94h-91c-0.828,0-1.5,0.671-1.5,1.5v28c0,2.481,2.019,4.5,4.5,4.5h85c2.481,0,4.5-2.019,4.5-4.5v-28
			C111,94.671,110.328,94,109.5,94z M108,123.5c0,0.827-0.673,1.5-1.5,1.5h-85c-0.827,0-1.5-0.673-1.5-1.5V97h88V123.5z"/>
		<path class="st7" d="M123.5,14h-14c-0.828,0-1.5,0.671-1.5,1.5v15c0,0.829,0.672,1.5,1.5,1.5h17c0.828,0,1.5-0.671,1.5-1.5v-12
			C128,16.019,125.981,14,123.5,14z M125,29h-14V17h12.5c0.827,0,1.5,0.673,1.5,1.5V29z"/>
		<path class="st6" d="M123.5,14h-14c-0.828,0-1.5,0.671-1.5,1.5v100c0,0.829,0.672,1.5,1.5,1.5h14c2.481,0,4.5-2.019,4.5-4.5
			V47.538c0-0.829-0.672-1.5-1.5-1.5s-1.5,0.671-1.5,1.5V112.5c0,0.827-0.673,1.5-1.5,1.5H111V17h12.5c0.827,0,1.5,0.673,1.5,1.5
			v21.051c0,0.829,0.672,1.5,1.5,1.5s1.5-0.671,1.5-1.5V18.5C128,16.019,125.981,14,123.5,14z"/>
		<path class="st6" d="M37.629,65.512c-0.546-0.623-1.493-0.687-2.116-0.141l-8,7C27.187,72.656,27,73.067,27,73.5
			s0.187,0.844,0.513,1.129l8,7C35.797,81.878,36.148,82,36.499,82c0.418,0,0.833-0.173,1.13-0.512
			c0.546-0.624,0.482-1.571-0.142-2.117L30.778,73.5l6.709-5.871C38.111,67.083,38.175,66.136,37.629,65.512z"/>
		<path class="st6" d="M91.487,65.371c-0.623-0.546-1.57-0.482-2.116,0.141c-0.546,0.624-0.482,1.571,0.142,2.117l6.709,5.871
			l-6.709,5.871c-0.624,0.545-0.688,1.493-0.142,2.117C89.668,81.827,90.083,82,90.501,82c0.351,0,0.702-0.122,0.986-0.371l8-7
			C99.813,74.344,100,73.933,100,73.5s-0.187-0.844-0.513-1.129L91.487,65.371z"/>
		<path class="st7" d="M18.5,14h-14C2.019,14,0,16.019,0,18.5v12C0,31.329,0.672,32,1.5,32h17c0.828,0,1.5-0.671,1.5-1.5v-15
			C20,14.671,19.328,14,18.5,14z M17,29H3V18.5C3,17.673,3.673,17,4.5,17H17V29z"/>
		<path class="st6" d="M18.5,14h-14C2.019,14,0,16.019,0,18.5v78.166c0,0.829,0.672,1.5,1.5,1.5s1.5-0.671,1.5-1.5V18.5
			C3,17.673,3.673,17,4.5,17H17v97H4.5c-0.827,0-1.5-0.673-1.5-1.5v-7.845c0-0.829-0.672-1.5-1.5-1.5s-1.5,0.671-1.5,1.5v7.845
			c0,2.481,2.019,4.5,4.5,4.5h14c0.828,0,1.5-0.671,1.5-1.5v-100C20,14.671,19.328,14,18.5,14z"/>
	</g>
</g>
<g>
</g>
</svg>
